<?xml version="1.0" encoding="UTF-8"?>
<svg id="Layer_1" data-name="Layer 1" xmlns="http://www.w3.org/2000/svg" viewBox="0 0 516.7 595.8">
  <defs>
    <style>
      .cls-1 {
        fill: #fff;
      }
    </style>
  </defs>
  <g id="_-Product-Icons" data-name="ðŸ”-Product-Icons">
    <g id="ic_fluent_share_ios_48_filled" data-name="ic fluent share ios 48 filled">
      <path id="_-Color" data-name="ðŸŽ¨-Color" class="cls-1" d="M487.5,233.3c15.3,0,27.9,11.8,29.1,26.8v2.4c0,0,0,237.5,0,237.5,0,51.7-40.9,93.8-92.2,95.8h-3.7c0,0-325,0-325,0-51.7,0-93.8-40.9-95.8-92.2v-3.7c0,0,0-237.5,0-237.5,0-16.1,13.1-29.2,29.2-29.2s27.9,11.8,29.1,26.8v2.4c0,0,0,237.5,0,237.5,0,19.8,15.4,36.1,34.9,37.4h2.6c0,0,325,0,325,0,19.8,0,36.1-15.4,37.4-34.9v-2.6c0,0,0-237.5,0-237.5,0-16.1,13.1-29.2,29.2-29.2ZM250,.3l2.5-.2h2.9s2.6.2,2.6.2h0l3,.5h0l1.1.3h0c3.3.9,6.4,2.4,9.2,4.4l2,1.6h0l1.5,1.4,129.6,129.6c11.4,11.4,11.4,29.9,0,41.2-10.7,10.7-27.7,11.4-39.2,1.9l-2.1-1.9-79.9-79.9v321.3c0,15.3-11.8,27.9-26.8,29.1h-2.4c-15.3,0-27.9-11.7-29.1-26.7v-2.4c0,0,0-321.2,0-321.2l-79.8,79.8c-10.7,10.7-27.7,11.4-39.2,1.9l-2.1-1.9c-10.7-10.7-11.4-27.7-1.9-39.2l1.9-2.1L233.1,8.9c.9-1,1.9-1.9,3-2.7l1.9-1.3h0c.6-.4,1.3-.8,2-1.2l.3-.2c3-1.6,6.2-2.7,9.7-3.2Z"/>
    </g>
  </g>
</svg>